<svg id="logo_txt" data-name="logo txt" xmlns="http://www.w3.org/2000/svg" width="605.375" height="163" viewBox="0 0 605.375 163">
  <defs>
    <style>
      .cls-1 {
        fill: #fd1d59;
        fill-rule: evenodd;
      }
    </style>
  </defs>
  <path id="Code_web" data-name="Code web" class="cls-1" d="M577.09,342.21a39.7,39.7,0,0,0,15.18-14.58l-18.6-10.8a17.068,17.068,0,0,1-7.14,7.14,21.842,21.842,0,0,1-10.62,2.58q-10.08,0-16.32-6.24-6.12-6.238-6.12-16.56,0-10.08,6.12-16.44,6.358-6.358,16.32-6.36a21.864,21.864,0,0,1,10.62,2.58,17.286,17.286,0,0,1,7.14,7.02l18.6-10.68a40.338,40.338,0,0,0-15.24-14.52,42.777,42.777,0,0,0-21.12-5.4q-19.08,0-31.44,12.6-12.361,12.361-12.36,31.2t12.36,31.32q12.478,12.482,31.44,12.48A43.064,43.064,0,0,0,577.09,342.21Zm105.779-38.46q0-18.479-12.84-31.08-12.72-12.719-31.2-12.72-18.6,0-31.32,12.72-12.72,12.6-12.72,31.08t12.72,31.2q12.719,12.6,31.32,12.6a43.438,43.438,0,0,0,44.04-43.8h0Zm-66.72,0q0-10.08,6.48-16.32a23.49,23.49,0,0,1,32.4,0q6.48,6.242,6.48,16.32,0,9.962-6.48,16.44a23.812,23.812,0,0,1-32.4,0q-6.48-6.48-6.48-16.44h0Zm76.68,42h34.2q17.4,0,29.04-12,11.759-12.119,11.76-30,0-17.759-11.76-29.88a38.864,38.864,0,0,0-29.04-12.12h-34.2v84Zm22.08-63.24h12.12a18.708,18.708,0,0,1,14.28,5.88q5.517,5.642,5.52,15.36,0,9.6-5.52,15.48a19.144,19.144,0,0,1-14.28,5.76h-12.12V282.51Zm113.279,30.72v-19.8h-28.92V281.79h31.92V261.75h-53.4v84h54V325.59h-32.52V313.23h28.92Zm94.677-14.88,13.44,47.4h22.68l23.4-84h-23.04l-13.08,52.92-15-52.92h-16.92l-15,52.92-12.96-52.92h-23.16l23.52,84h22.68ZM1040.1,313.23v-19.8h-28.92V281.79h31.92V261.75H989.705v84h54V325.59h-32.52V313.23h28.92Zm74.64-27.6q0-11.038-7.5-17.46t-20.22-6.42H1053.9v84h35.4q12.72,0,20.52-6.72,7.68-6.6,7.68-17.88,0-12.6-10.56-18.84,7.8-6.12,7.8-16.68h0Zm-23.4-2.88a7.035,7.035,0,0,1,0,9.66,7.041,7.041,0,0,1-4.92,1.74h-11.04v-13.2h11.04A6.906,6.906,0,0,1,1091.34,282.75Zm-15.96,29.64h13.32a7.4,7.4,0,0,1,5.28,1.92,7.47,7.47,0,0,1,0,10.26,7.263,7.263,0,0,1-5.28,1.98h-13.32V312.39Z" transform="translate(-512.125 -259.938)"/>
  <path id="Your_Idea_We_Implement" data-name="Your Idea We Implement" class="cls-1" d="M540.611,391.942l-7.752-14.892H524.9l12.189,21.777V412.75h6.987V398.827l12.24-21.777h-7.956ZM579.983,400a13.324,13.324,0,1,0-3.927,9.588A12.986,12.986,0,0,0,579.983,400h0Zm-20.4,0a7.044,7.044,0,0,1,1.938-5.049,7.147,7.147,0,0,1,9.894,0,7.4,7.4,0,0,1,0,10.1,7.147,7.147,0,0,1-9.894,0A7.041,7.041,0,0,1,559.583,400Zm40.366,5.738a5.352,5.352,0,0,1-4.1,1.606,4.942,4.942,0,0,1-3.7-1.377,5.3,5.3,0,0,1-1.351-3.876V387.25h-6.58v15.657a10.814,10.814,0,0,0,2.7,7.752,9.312,9.312,0,0,0,6.935,2.805q5.253,0,7.6-3.57v2.856h6.58v-25.5h-6.58v13.77A6.668,6.668,0,0,1,599.949,405.738Zm14.1-18.488v25.5h6.579V400.561q0-3.672,2.346-5.253a7.494,7.494,0,0,1,5.406-1.224V386.74a9.164,9.164,0,0,0-4.794,1.25,6.794,6.794,0,0,0-2.958,3.646V387.25H614.05Zm38.25,25.5v-35.7h-7.038v35.7H652.3Zm17.39-26.214a11.654,11.654,0,0,0-8.823,3.927,14.437,14.437,0,0,0,0,19.125,11.723,11.723,0,0,0,8.823,3.876,9.869,9.869,0,0,0,8.262-3.723v3.009h6.579v-35.7h-6.579v13.209a9.872,9.872,0,0,0-8.262-3.723h0ZM663.825,400a6.894,6.894,0,0,1,7.089-7.191,6.755,6.755,0,0,1,5.049,2.04A6.97,6.97,0,0,1,677.952,400a7.14,7.14,0,0,1-1.989,5.2,6.841,6.841,0,0,1-5.049,1.989A6.819,6.819,0,0,1,663.825,400h0Zm51.765,0a13.408,13.408,0,0,0-3.672-9.588,11.982,11.982,0,0,0-9.231-3.876,12.833,12.833,0,0,0-9.69,3.876A13.2,13.2,0,0,0,689.223,400a13.068,13.068,0,0,0,3.825,9.639,13.717,13.717,0,0,0,10.149,3.825q7.344,0,11.118-5.457l-5.3-3.06a6.728,6.728,0,0,1-5.712,2.55q-5.917,0-7.191-4.794h19.227a18.27,18.27,0,0,0,.255-2.7h0ZM698.3,393.8a6.917,6.917,0,0,1,4.386-1.352,6.191,6.191,0,0,1,6.324,5.151h-13A6.448,6.448,0,0,1,698.3,393.8Zm32.742-7.268a11.6,11.6,0,0,0-8.772,3.927,14.437,14.437,0,0,0,0,19.125,11.667,11.667,0,0,0,8.772,3.876,10.014,10.014,0,0,0,8.313-3.723v3.009h6.579v-25.5h-6.579v3.009a10.016,10.016,0,0,0-8.313-3.723h0ZM725.229,400a6.97,6.97,0,0,1,1.989-5.151,7.268,7.268,0,0,1,10.1,0,6.88,6.88,0,0,1,2.04,5.151,7.046,7.046,0,0,1-2.04,5.2,7.4,7.4,0,0,1-10.1,0,7.14,7.14,0,0,1-1.989-5.2h0Zm61.862-10.812,6.732,23.562h8.007l10-35.7h-7.395L797.6,403.519l-7.5-26.469h-6.018l-7.446,26.469L769.8,377.05h-7.395l10,35.7h8.007ZM837.581,400a13.408,13.408,0,0,0-3.672-9.588,11.98,11.98,0,0,0-9.231-3.876,12.833,12.833,0,0,0-9.69,3.876A13.2,13.2,0,0,0,811.214,400a13.068,13.068,0,0,0,3.825,9.639,13.718,13.718,0,0,0,10.149,3.825q7.344,0,11.118-5.457l-5.3-3.06a6.727,6.727,0,0,1-5.712,2.55q-5.917,0-7.191-4.794h19.227a18.135,18.135,0,0,0,.255-2.7h0Zm-17.289-6.2a6.919,6.919,0,0,1,4.386-1.352A6.191,6.191,0,0,1,831,397.6H818A6.458,6.458,0,0,1,820.292,393.8Zm41.973,18.946v-35.7h-7.038v35.7h7.038Zm26.927-22.542a7.486,7.486,0,0,0-6.936-3.672q-4.794,0-7.089,3.417v-2.7h-6.579v25.5h6.579V398.419a6.318,6.318,0,0,1,1.3-4.259,4.385,4.385,0,0,1,3.493-1.5,3.994,3.994,0,0,1,3.162,1.275,5.225,5.225,0,0,1,1.122,3.57V412.75h6.579V398.419a6.47,6.47,0,0,1,1.25-4.284,4.32,4.32,0,0,1,3.493-1.479,3.993,3.993,0,0,1,3.162,1.275,5.225,5.225,0,0,1,1.122,3.57V412.75h6.579V397.042a10.867,10.867,0,0,0-2.626-7.65,9.069,9.069,0,0,0-7.013-2.856q-5.1,0-7.6,3.672h0Zm29.427,0.051V387.25H912.04v35.7h6.579V409.741a9.869,9.869,0,0,0,8.262,3.723,11.463,11.463,0,0,0,8.772-3.876,14.287,14.287,0,0,0,0-19.125,11.5,11.5,0,0,0-8.772-3.927,9.872,9.872,0,0,0-8.262,3.723h0Zm0,9.741a6.97,6.97,0,0,1,1.989-5.151,7.268,7.268,0,0,1,10.1,0,6.88,6.88,0,0,1,2.04,5.151,7.046,7.046,0,0,1-2.04,5.2,7.4,7.4,0,0,1-10.1,0,7.14,7.14,0,0,1-1.989-5.2h0Zm31.925-24.48h-6.579v37.23h6.579V375.52ZM981.6,400a13.408,13.408,0,0,0-3.672-9.588,11.98,11.98,0,0,0-9.231-3.876,12.833,12.833,0,0,0-9.69,3.876A13.2,13.2,0,0,0,955.236,400a13.068,13.068,0,0,0,3.825,9.639,13.718,13.718,0,0,0,10.149,3.825q7.344,0,11.118-5.457l-5.3-3.06a6.727,6.727,0,0,1-5.712,2.55q-5.918,0-7.191-4.794h19.227a18.135,18.135,0,0,0,.255-2.7h0Zm-17.289-6.2a6.919,6.919,0,0,1,4.386-1.352,6.191,6.191,0,0,1,6.324,5.151h-13A6.458,6.458,0,0,1,964.314,393.8Zm42.486-3.6a7.5,7.5,0,0,0-6.94-3.672q-4.794,0-7.089,3.417v-2.7h-6.579v25.5h6.579V398.419a6.318,6.318,0,0,1,1.3-4.259,4.385,4.385,0,0,1,3.493-1.5,4,4,0,0,1,3.165,1.275,5.265,5.265,0,0,1,1.12,3.57V412.75h6.58V398.419a6.437,6.437,0,0,1,1.25-4.284,4.307,4.307,0,0,1,3.49-1.479,3.977,3.977,0,0,1,3.16,1.275,5.218,5.218,0,0,1,1.13,3.57V412.75h6.57V397.042a10.864,10.864,0,0,0-2.62-7.65,9.066,9.066,0,0,0-7.01-2.856c-3.4,0-5.94,1.224-7.6,3.672h0ZM1054.68,400a13.4,13.4,0,0,0-3.67-9.588,11.969,11.969,0,0,0-9.23-3.876,12.828,12.828,0,0,0-9.69,3.876,13.23,13.23,0,0,0-3.77,9.588,13.064,13.064,0,0,0,3.82,9.639,13.73,13.73,0,0,0,10.15,3.825q7.35,0,11.12-5.457l-5.3-3.06a6.746,6.746,0,0,1-5.72,2.55q-5.91,0-7.19-4.794h19.23a18.033,18.033,0,0,0,.25-2.7h0Zm-17.28-6.2a6.888,6.888,0,0,1,4.38-1.352,6.192,6.192,0,0,1,6.33,5.151H1035.1A6.425,6.425,0,0,1,1037.4,393.8Zm28.45-3.7V387.25h-6.58v25.5h6.58V398.98a6.63,6.63,0,0,1,1.51-4.717,5.338,5.338,0,0,1,4.1-1.607,4.939,4.939,0,0,1,3.7,1.377,5.3,5.3,0,0,1,1.35,3.876V412.75h6.58V397.093a10.722,10.722,0,0,0-2.75-7.752,9.066,9.066,0,0,0-6.89-2.805q-5.25,0-7.6,3.57h0Zm31.67-2.856v-7.14l-6.57,1.989v5.151h-4.44v6.324h4.44v10.608q0,5.305,2.83,7.318t9.51,1.25v-5.967a28.545,28.545,0,0,1-3.16.026,3.045,3.045,0,0,1-1.94-.689,2.53,2.53,0,0,1-.67-1.938V393.574h5.77V387.25h-5.77Z" transform="translate(-512.125 -259.938)"/>
</svg>
